<svg xmlns="http://www.w3.org/2000/svg" viewBox="0 0 200 240" width="100%" height="100%">
  <!-- Bulb Outline & Base -->
  <path d="M 60 170 C 40 145 35 110 50 85 C 65 60 90 45 120 48 C 122 48 123 48 125 49" fill="none" stroke="#1A1A1A" stroke-width="12" stroke-linecap="round"/>
  <!-- Bulb Base Threads -->
  <path d="M 75 185 L 125 185 M 80 198 L 120 198 M 88 210 L 112 210" fill="none" stroke="#1A1A1A" stroke-width="10" stroke-linecap="round"/>
  
  <!-- Stem & Growth Sprout (Leaf 1 & 2) -->
  <path d="M 100 175 C 100 130 95 110 70 100 C 90 95 105 105 100 175 Z" fill="#4A4A4A"/>
  <path d="M 100 135 C 105 100 130 85 145 75 C 135 95 120 115 100 135 Z" fill="#1A1A1A"/>
  
  <!-- Ascending Growth Arrow -->
  <path d="M 100 160 C 100 100 135 60 165 35" fill="none" stroke="#1A1A1A" stroke-width="14" stroke-linecap="round"/>
  <path d="M 140 30 L 175 30 L 175 65 Z" fill="#1A1A1A"/>
</svg>